<svg xmlns="http://www.w3.org/2000/svg" viewBox="0 0 200 40" preserveAspectRatio="none">
  <defs>
    <linearGradient id="redBg" x1="0" y1="0" x2="0" y2="1">
      <stop offset="0%" stop-color="#DC143C"/>
      <stop offset="100%" stop-color="#B22222"/>
    </linearGradient>
    <linearGradient id="goldBorder" x1="0" y1="0" x2="1" y2="0">
      <stop offset="0%" stop-color="#FFD700"/>
      <stop offset="50%" stop-color="#FFA500"/>
      <stop offset="100%" stop-color="#FFD700"/>
    </linearGradient>
  </defs>
  <!-- 主背景 -->
  <rect x="1" y="1" width="198" height="38" rx="4" fill="url(#redBg)"/>
  <!-- 金边 -->
  <rect x="0.5" y="0.5" width="199" height="39" rx="4.5" fill="none" stroke="url(#goldBorder)" stroke-width="1.5"/>
  <!-- 左侧端帽 -->
  <rect x="0" y="8" width="6" height="24" rx="2" fill="#FFD700"/>
  <rect x="1" y="10" width="4" height="20" rx="1.5" fill="#B22222"/>
  <!-- 右侧端帽 -->
  <rect x="194" y="8" width="6" height="24" rx="2" fill="#FFD700"/>
  <rect x="195" y="10" width="4" height="20" rx="1.5" fill="#B22222"/>
  <!-- 云纹装饰 -->
  <path d="M20 12c4 0 4-4 8-4s4 4 8 4" fill="none" stroke="#FCE38A" stroke-width="0.8" opacity="0.4"/>
  <path d="M164 12c4 0 4-4 8-4s4 4 8 4" fill="none" stroke="#FCE38A" stroke-width="0.8" opacity="0.4"/>
  <path d="M20 28c4 0 4 4 8 4s4-4 8-4" fill="none" stroke="#FCE38A" stroke-width="0.8" opacity="0.4"/>
  <path d="M164 28c4 0 4 4 8 4s4-4 8-4" fill="none" stroke="#FCE38A" stroke-width="0.8" opacity="0.4"/>
</svg>
