<svg viewBox="0 0 142 82" xmlns="http://www.w3.org/2000/svg" preserveAspectRatio="none">
  <!-- 背景 -->
  <rect x="0" y="0" width="142" height="82" rx="4" fill="#ffffff" stroke="#006ae6" stroke-width="1"/>
  
  <!-- 顶部导航栏 -->
  <rect x="4" y="4" width="134" height="12" rx="2" fill="#006ae6" stroke="#006ae6" stroke-width="1"/>
  
  <!-- 卡片网格布局 -->
  <!-- 第一行卡片 -->
  <rect x="8" y="20" width="38" height="26" rx="3" fill="#ffffff" stroke="#006ae6" stroke-width="1" drop-shadow="0 2px 4px rgba(0,0,0,0.1)"/>
  <rect x="52" y="20" width="38" height="26" rx="3" fill="#ffffff" stroke="#006ae6" stroke-width="1"/>
  <rect x="96" y="20" width="38" height="26" rx="3" fill="#ffffff" stroke="#006ae6" stroke-width="1"/>
  
  <!-- 第二行卡片 -->
  <rect x="8" y="50" width="38" height="26" rx="3" fill="#ffffff" stroke="#006ae6" stroke-width="1"/>
  <rect x="52" y="50" width="38" height="26" rx="3" fill="#ffffff" stroke="#006ae6" stroke-width="1"/>
  <rect x="96" y="50" width="38" height="26" rx="3" fill="#ffffff" stroke="#006ae6" stroke-width="1"/>
  
  <!-- 顶部导航栏菜单项 -->
  <rect x="8" y="6" width="24" height="8" rx="1" fill="#ffffff" opacity="0.9"/>
  <rect x="36" y="6" width="24" height="8" rx="1" fill="#ffffff" opacity="0.7"/>
  <rect x="64" y="6" width="24" height="8" rx="1" fill="#ffffff" opacity="0.7"/>
  
  <!-- 卡片内容装饰 -->
  <!-- 第一行卡片内容 -->
  <rect x="12" y="24" width="30" height="3" rx="1" fill="#006ae6"/>
  <rect x="12" y="30" width="20" height="2" rx="1" fill="#006ae6" opacity="0.7"/>
  <rect x="12" y="34" width="25" height="2" rx="1" fill="#006ae6" opacity="0.7"/>
  
  <rect x="56" y="24" width="30" height="3" rx="1" fill="#006ae6"/>
  <rect x="56" y="30" width="20" height="2" rx="1" fill="#006ae6" opacity="0.7"/>
  <rect x="56" y="34" width="25" height="2" rx="1" fill="#006ae6" opacity="0.7"/>
  
  <rect x="100" y="24" width="30" height="3" rx="1" fill="#006ae6"/>
  <rect x="100" y="30" width="20" height="2" rx="1" fill="#006ae6" opacity="0.7"/>
  <rect x="100" y="34" width="25" height="2" rx="1" fill="#006ae6" opacity="0.7"/>
  
  <!-- 第二行卡片内容 -->
  <rect x="12" y="54" width="30" height="3" rx="1" fill="#006ae6"/>
  <rect x="12" y="60" width="20" height="2" rx="1" fill="#006ae6" opacity="0.7"/>
  <rect x="12" y="64" width="25" height="2" rx="1" fill="#006ae6" opacity="0.7"/>
  
  <rect x="56" y="54" width="30" height="3" rx="1" fill="#006ae6"/>
  <rect x="56" y="60" width="20" height="2" rx="1" fill="#006ae6" opacity="0.7"/>
  <rect x="56" y="64" width="25" height="2" rx="1" fill="#006ae6" opacity="0.7"/>
  
  <rect x="100" y="54" width="30" height="3" rx="1" fill="#006ae6"/>
  <rect x="100" y="60" width="20" height="2" rx="1" fill="#006ae6" opacity="0.7"/>
  <rect x="100" y="64" width="25" height="2" rx="1" fill="#006ae6" opacity="0.7"/>
</svg>