<svg viewBox="0 0 64 48" fill="none" xmlns="http://www.w3.org/2000/svg">
  <!-- 左栏（一级菜单图标栏） -->
  <rect x="2" y="2" width="12" height="44" rx="2" fill="currentColor" opacity="0.9"/>
  <!-- 一级菜单图标 -->
  <rect x="5" y="6" width="6" height="6" rx="1" fill="currentColor" opacity="0.9"/>
  <rect x="5" y="14" width="6" height="6" rx="1" fill="currentColor" opacity="0.7"/>
  <rect x="5" y="22" width="6" height="6" rx="1" fill="currentColor" opacity="0.7"/>
  <rect x="5" y="30" width="6" height="6" rx="1" fill="currentColor" opacity="0.7"/>
  
  <!-- 右栏（子菜单栏） -->
  <rect x="16" y="2" width="18" height="44" rx="2" fill="currentColor" stroke="currentColor" stroke-width="1" opacity="0.8"/>
  <!-- 子菜单项 -->
  <rect x="20" y="8" width="10" height="2" rx="1" fill="currentColor" opacity="0.8"/>
  <rect x="20" y="12" width="10" height="2" rx="1" fill="currentColor" opacity="0.6"/>
  <rect x="20" y="16" width="10" height="2" rx="1" fill="currentColor" opacity="0.6"/>
  <rect x="20" y="20" width="10" height="2" rx="1" fill="currentColor" opacity="0.6"/>
  
  <!-- 主内容区域 -->
  <rect x="36" y="2" width="26" height="44" rx="2" fill="currentColor" stroke="currentColor" stroke-width="1"/>
  <!-- 顶部工具栏 -->
  <rect x="40" y="6" width="18" height="6" rx="1" fill="currentColor"/>
  <!-- 内容条 -->
  <rect x="40" y="16" width="18" height="2" rx="1" fill="currentColor"/>
  <rect x="40" y="20" width="14" height="2" rx="1" fill="currentColor"/>
  <rect x="40" y="24" width="16" height="2" rx="1" fill="currentColor"/>
  <rect x="40" y="28" width="12" height="2" rx="1" fill="currentColor"/>
  <rect x="40" y="32" width="18" height="2" rx="1" fill="currentColor"/>
  
  <!-- 连接线表示关联关系 -->
  <line x1="11" y1="9" x2="16" y2="9" stroke="currentColor" stroke-width="1" opacity="0.6"/>
</svg>