<svg viewBox="0 0 64 48" fill="none" xmlns="http://www.w3.org/2000/svg">
  <!-- 极简左侧栏 -->
  <rect x="2" y="2" width="12" height="44" rx="2" fill="#409EFF" opacity="0.9"/>
  <!-- 图标菜单项 -->
  <rect x="5" y="6" width="6" height="6" rx="1" fill="white" opacity="0.9"/>
  <rect x="5" y="14" width="6" height="2" rx="1" fill="white" opacity="0.7"/>
  <rect x="5" y="18" width="6" height="2" rx="1" fill="white" opacity="0.7"/>
  <rect x="5" y="22" width="6" height="2" rx="1" fill="white" opacity="0.7"/>
  
  <!-- 悬停展开的子菜单 -->
  <rect x="16" y="6" width="24" height="20" rx="2" fill="#E1F3FF" stroke="#409EFF" stroke-width="1" opacity="0.9"/>
  <!-- 子菜单项 -->
  <rect x="20" y="10" width="16" height="2" rx="1" fill="#409EFF" opacity="0.8"/>
  <rect x="20" y="14" width="16" height="2" rx="1" fill="#409EFF" opacity="0.8"/>
  <rect x="20" y="18" width="16" height="2" rx="1" fill="#409EFF" opacity="0.8"/>
  
  <!-- 主内容区域 -->
  <rect x="16" y="28" width="46" height="18" rx="2" fill="#FFFFFF" stroke="#E4E7ED" stroke-width="1"/>
  <!-- 内容条 -->
  <rect x="20" y="32" width="38" height="2" rx="1" fill="#DCDFE6"/>
  <rect x="20" y="36" width="28" height="2" rx="1" fill="#DCDFE6"/>
  <rect x="20" y="40" width="32" height="2" rx="1" fill="#DCDFE6"/>
  
  <!-- 连接线表示悬停关系 -->
  <line x1="11" y1="16" x2="16" y2="16" stroke="#409EFF" stroke-width="1" stroke-dasharray="2,2" opacity="0.6"/>
</svg>