<svg viewBox="0 0 64 48" fill="none" xmlns="http://www.w3.org/2000/svg">
  <!-- 顶部导航栏 -->
  <rect x="2" y="2" width="60" height="14" rx="2" fill="#409EFF" opacity="0.9"/>
  <!-- Logo -->
  <rect x="6" y="6" width="10" height="6" rx="1" fill="white" opacity="0.9"/>
  <!-- 一级菜单项 -->
  <rect x="20" y="8" width="10" height="2" rx="1" fill="white" opacity="0.7"/>
  <rect x="32" y="8" width="10" height="2" rx="1" fill="white" opacity="0.7"/>
  
  <!-- 左侧子菜单栏 -->
  <rect x="2" y="18" width="18" height="28" rx="2" fill="#E1F3FF" stroke="#409EFF" stroke-width="1" opacity="0.8"/>
  <!-- 子菜单项 -->
  <rect x="6" y="22" width="10" height="2" rx="1" fill="#409EFF" opacity="0.7"/>
  <rect x="6" y="26" width="10" height="2" rx="1" fill="#409EFF" opacity="0.7"/>
  <rect x="6" y="30" width="10" height="2" rx="1" fill="#409EFF" opacity="0.7"/>
  
  <!-- 主内容区域 -->
  <rect x="22" y="18" width="40" height="28" rx="2" fill="#FFFFFF" stroke="#E4E7ED" stroke-width="1"/>
  <!-- 内容条 -->
  <rect x="26" y="22" width="32" height="2" rx="1" fill="#DCDFE6"/>
  <rect x="26" y="26" width="24" height="2" rx="1" fill="#DCDFE6"/>
  <rect x="26" y="30" width="28" height="2" rx="1" fill="#DCDFE6"/>
  <rect x="26" y="34" width="20" height="2" rx="1" fill="#DCDFE6"/>
</svg>